<svg width="14" height="16" viewBox="0 0 14 16" fill="none" xmlns="http://www.w3.org/2000/svg">
<path id="Vector" d="M1.762 0.486084C1.53073 0.485908 1.30169 0.531641 1.08797 0.620673C0.874242 0.709704 0.68002 0.840288 0.516394 1.00497C0.352769 1.16964 0.222946 1.36519 0.134342 1.58043C0.0457372 1.79567 8.75029e-05 2.0264 0 2.25942C0 3.24013 0.788667 4.0529 1.76 4.0529C2.73267 4.0529 3.522 3.24013 3.522 2.26076C3.52218 2.02777 3.47678 1.79703 3.38841 1.58172C3.30004 1.36642 3.17043 1.17077 3.00698 1.00596C2.84353 0.841145 2.64945 0.710402 2.43583 0.6212C2.22221 0.531997 1.99324 0.486084 1.762 0.486084V0.486084ZM10.3567 5.18811C8.87733 5.18811 8.03133 5.9673 7.62467 6.74246H7.582V5.39701H4.66667V15.2639H7.70467V10.3798C7.70467 9.0928 7.80067 7.84878 9.38133 7.84878C10.9393 7.84878 10.962 9.31648 10.962 10.4611V15.2639H14V9.84445C14 7.19251 13.434 5.18811 10.3567 5.18811ZM0.242 5.39634V15.2639H3.282V5.39634H0.242V5.39634Z" fill="#D0D0D0"/>
</svg>
