<svg width="14" height="16" viewBox="0 0 14 16" fill="none" xmlns="http://www.w3.org/2000/svg">
<path id="Vector" d="M4.11664 0.486084C1.85691 0.486084 0 2.44347 0 4.83142V10.9185C0 13.3038 1.85436 15.2639 4.11664 15.2639H9.88336C12.1431 15.2639 14 13.3065 14 10.9185V4.83209C14 2.44615 12.1456 0.486084 9.88336 0.486084H4.11664ZM4.11664 1.82952H9.88336C10.257 1.82899 10.627 1.90627 10.9723 2.05694C11.3175 2.20762 11.6313 2.42871 11.8954 2.70757C12.1596 2.98643 12.3691 3.31757 12.5118 3.68202C12.6546 4.04646 12.7278 4.43706 12.7273 4.83142V10.9185C12.7278 11.3129 12.6546 11.7035 12.5118 12.0679C12.3691 12.4324 12.1596 12.7635 11.8954 13.0424C11.6313 13.3212 11.3175 13.5423 10.9723 13.693C10.627 13.8437 10.257 13.921 9.88336 13.9204H4.11727C3.74361 13.921 3.37351 13.8438 3.02817 13.6932C2.68283 13.5426 2.36904 13.3215 2.10479 13.0426C1.84054 12.7637 1.63103 12.4326 1.48824 12.0681C1.34546 11.7036 1.27222 11.3129 1.27273 10.9185V4.83209C1.27214 4.43767 1.3453 4.04701 1.488 3.68248C1.6307 3.31796 1.84015 2.98674 2.10434 2.70781C2.36853 2.42888 2.68227 2.20772 3.02758 2.05701C3.37288 1.90629 3.74297 1.82899 4.11664 1.82952V1.82952ZM10.7584 3.29924C10.6826 3.29888 10.6074 3.31438 10.5373 3.34484C10.4672 3.37529 10.4035 3.42011 10.3499 3.47669C10.2963 3.53327 10.2539 3.6005 10.225 3.6745C10.1962 3.7485 10.1815 3.82779 10.1818 3.90781C10.1818 4.24636 10.4376 4.51639 10.7584 4.51639C10.8342 4.51683 10.9094 4.5014 10.9796 4.47098C11.0498 4.44056 11.1135 4.39576 11.1672 4.33917C11.2209 4.28258 11.2634 4.21532 11.2923 4.14128C11.3212 4.06724 11.3359 3.98789 11.3355 3.90781C11.3359 3.82774 11.3212 3.74838 11.2923 3.67434C11.2634 3.6003 11.2209 3.53304 11.1672 3.47645C11.1135 3.41986 11.0498 3.37506 10.9796 3.34464C10.9094 3.31422 10.8342 3.29879 10.7584 3.29924V3.29924ZM7 3.84467C4.9 3.84467 3.18182 5.65831 3.18182 7.87497C3.18182 10.0916 4.9 11.9053 7 11.9053C9.1 11.9053 10.8182 10.0916 10.8182 7.87497C10.8182 5.65831 9.1 3.84467 7 3.84467ZM7 5.1881C8.41464 5.1881 9.54545 6.38175 9.54545 7.87497C9.54545 9.3682 8.41464 10.5618 7 10.5618C5.58536 10.5618 4.45455 9.3682 4.45455 7.87497C4.45455 6.38175 5.58536 5.1881 7 5.1881Z" fill="#D0D0D0"/>
</svg>
