<svg width="16" height="14" viewBox="0 0 16 14" fill="none" xmlns="http://www.w3.org/2000/svg">
<path id="Vector" d="M16 1.78992C15.4009 2.06181 14.7654 2.23989 14.1147 2.31821C14.7997 1.89768 15.3124 1.23633 15.5573 0.457221C14.913 0.848649 14.2086 1.12504 13.474 1.27461C13.024 0.78141 12.4396 0.438424 11.7969 0.290251C11.1542 0.142078 10.4829 0.195573 9.87019 0.44378C9.25753 0.691986 8.73189 1.12342 8.36161 1.68198C7.99134 2.24055 7.79356 2.9004 7.794 3.57573C7.794 3.84022 7.82267 4.09651 7.88067 4.34187C6.57501 4.27598 5.29754 3.9288 4.13152 3.32294C2.96551 2.71709 1.9371 1.86615 1.11333 0.825592C0.820651 1.3392 0.667136 1.92364 0.668667 2.51846C0.668667 3.68508 1.24667 4.7157 2.12933 5.31918C1.60797 5.30222 1.09817 5.15738 0.642667 4.89681V4.93987C0.642216 5.71706 0.904286 6.47042 1.38434 7.07194C1.8644 7.67346 2.53281 8.08602 3.276 8.2395C2.79271 8.37537 2.28541 8.39548 1.79333 8.29827C2.00294 8.96688 2.41103 9.55167 2.96059 9.97097C3.51015 10.3903 4.17374 10.6231 4.85867 10.637C4.17776 11.1849 3.39814 11.5897 2.56443 11.8284C1.73072 12.067 0.859285 12.1348 0 12.0278C1.50035 13.0176 3.24716 13.5432 5.03133 13.5416C11.07 13.5416 14.3727 8.41309 14.3727 3.96529C14.3727 3.82177 14.3673 3.67415 14.362 3.52994C15.0037 3.05363 15.5582 2.46479 16 1.7906V1.78992Z" fill="#D0D0D0"/>
</svg>
