<svg width="18" height="14" viewBox="0 0 18 14" fill="none" xmlns="http://www.w3.org/2000/svg">
<path id="Vector" d="M17.6203 2.65457C17.5178 2.28391 17.3173 1.94596 17.0386 1.67453C16.76 1.4031 16.413 1.20773 16.0325 1.10796C14.6311 0.738526 9 0.738525 9 0.738525C9 0.738525 3.36887 0.738526 1.96752 1.10796C1.587 1.20773 1.24005 1.4031 0.961397 1.67453C0.682748 1.94596 0.482174 2.28391 0.379749 2.65457C0.118085 4.04669 -0.00889312 5.45966 0.000483683 6.87489C-0.00889312 8.29012 0.118085 9.70309 0.379749 11.0952C0.482174 11.4659 0.682748 11.8038 0.961397 12.0752C1.24005 12.3467 1.587 12.542 1.96752 12.6418C3.36887 13.0113 9 13.0113 9 13.0113C9 13.0113 14.6311 13.0113 16.0325 12.6418C16.413 12.542 16.76 12.3467 17.0386 12.0752C17.3173 11.8038 17.5178 11.4659 17.6203 11.0952C17.8819 9.70309 18.0089 8.29012 17.9995 6.87489C18.0089 5.45966 17.8819 4.04669 17.6203 2.65457V2.65457ZM7.2001 9.50476V4.24502L11.8734 6.87489L7.2001 9.50476Z" fill="#D0D0D0"/>
</svg>
